<svg width="55" height="53" viewBox="0 0 55 53" fill="none" xmlns="http://www.w3.org/2000/svg">
<line y1="-0.5" x2="21.7649" y2="-0.5" transform="matrix(0.232288 0.972647 -0.973262 0.229698 6.12811 9.13791)" stroke="#C4C4C4"/>
<line y1="-0.5" x2="19.4455" y2="-0.5" transform="matrix(0.362415 -0.932017 0.933453 0.3587 4.13647 48.5833)" stroke="#C4C4C4"/>
<line y1="-0.5" x2="21.7312" y2="-0.5" transform="matrix(0.972889 0.231274 -0.233879 0.972266 8.42615 30.3075)" stroke="#C4C4C4"/>
<line y1="-0.5" x2="20.0185" y2="-0.5" transform="matrix(0.864797 0.502121 -0.506574 0.862196 29.5682 35.3333)" stroke="#C4C4C4"/>
<line y1="-0.5" x2="28.0586" y2="-0.5" transform="matrix(0.982823 0.184548 -0.186671 0.982422 6.12811 9.13791)" stroke="#C4C4C4"/>
<line y1="-0.5" x2="20.0954" y2="-0.5" transform="matrix(0.861488 -0.507778 0.512247 0.858838 33.7047 14.3161)" stroke="#C4C4C4"/>
<ellipse cx="29.5682" cy="35.3334" rx="6.43454" ry="6.39655" fill="#FAB900"/>
<ellipse cx="11.1072" cy="30.3836" rx="5.13231" ry="5.10201" fill="#C4C4C4"/>
<ellipse cx="6.0515" cy="9.21407" rx="5.13231" ry="5.10201" fill="#C4C4C4"/>
<ellipse cx="46.9568" cy="45.7658" rx="4.05989" ry="4.03592" fill="#C4C4C4"/>
<ellipse cx="3.21727" cy="49.8017" rx="3.21727" ry="3.19827" fill="#36454C"/>
<ellipse cx="50.9401" cy="4.03592" rx="4.05989" ry="4.03592" fill="#FAB900"/>
<ellipse cx="33.6281" cy="14.3922" rx="4.05989" ry="4.03592" fill="#36454C"/>
</svg>
